# xmcd CD database file
#
# Track frame offsets:
#	150
#	70280
#	120986
#
# Disc length: 2172 seconds
#
# Revision: 0
# Processed by: cddbd v1.5.1PL2 Copyright (c) Steve Scherf et al.
# Submitted via: CDex 1.51
#
DISCID=20087a03
DTITLE=Vangelis - The Dragon
DYEAR=1900
DGENRE=New Age
TTITLE0=The Dragon
TTITLE1=Stuffed Aubergine
TTITLE2=Stuffed Tomatoe
EXTD=
EXTT0=
EXTT1=
EXTT2=
PLAYORDER=
